<svg width="600" height="1800" viewBox="0 0 600 1800" fill="none" xmlns="http://www.w3.org/2000/svg">
<rect width="600" height="1800" fill="#1C1C1C"/>
<rect width="520" height="413.333" transform="translate(40 40)" fill="white"/>
<rect width="520" height="413.333" transform="translate(40 493.333)" fill="white"/>
<rect width="520" height="413.333" transform="translate(40 946.667)" fill="white"/>
<path d="M192.026 1554.02C191.194 1554.79 190.234 1555.4 189.146 1555.85C188.122 1556.23 187.066 1556.39 185.978 1556.33C184.89 1556.26 183.834 1556.01 182.81 1555.56C181.786 1555.05 180.858 1554.31 180.026 1553.35C179.002 1552.14 178.394 1550.7 178.202 1549.03C177.562 1540.58 177.274 1532.17 177.338 1523.78C177.466 1515.4 177.466 1506.95 177.338 1498.44C177.338 1495.94 178.17 1493.93 179.834 1492.39C181.306 1490.98 182.906 1490.22 184.634 1490.09C186.362 1489.96 187.962 1490.31 189.434 1491.14C191.546 1490.44 193.722 1490.09 195.962 1490.09C198.266 1490.02 200.474 1490.22 202.586 1490.66C205.018 1491.18 207.386 1491.91 209.69 1492.87C212.058 1493.77 214.202 1494.98 216.122 1496.52C217.402 1497.54 218.554 1498.66 219.578 1499.88C220.602 1501.1 221.466 1502.44 222.17 1503.91C222.618 1504.94 222.97 1505.99 223.226 1507.08C223.482 1508.1 223.61 1509.16 223.61 1510.25C223.674 1511.34 223.578 1512.42 223.322 1513.51C223.066 1514.6 222.746 1515.66 222.362 1516.68C221.786 1518.02 220.986 1519.24 219.962 1520.33C218.938 1521.35 217.882 1522.31 216.794 1523.21C218.266 1524.62 219.322 1526.31 219.962 1528.3C220.666 1530.22 220.922 1532.17 220.73 1534.15C220.602 1535.3 220.314 1536.46 219.866 1537.61C219.482 1538.76 218.938 1539.82 218.234 1540.78C216.698 1543.02 214.81 1544.97 212.57 1546.63C210.33 1548.3 207.994 1549.7 205.562 1550.86C203.706 1551.69 201.786 1552.39 199.802 1552.97C197.882 1553.54 195.898 1553.9 193.85 1554.02H192.026ZM193.754 1507.27V1516.39C194.33 1516.07 194.874 1515.82 195.386 1515.62C195.962 1515.43 196.506 1515.27 197.018 1515.14C197.594 1514.95 198.17 1514.76 198.746 1514.57C200.218 1514.06 201.626 1513.45 202.97 1512.74C204.378 1511.98 205.69 1511.11 206.906 1510.15C206.202 1509.45 205.434 1508.9 204.602 1508.52C203.77 1508.07 202.906 1507.69 202.01 1507.37C201.114 1507.05 200.218 1506.82 199.322 1506.7C198.49 1506.5 197.626 1506.41 196.73 1506.41C196.538 1506.41 196.218 1506.41 195.77 1506.41C195.322 1506.41 195.034 1506.47 194.906 1506.6C194.65 1506.79 194.266 1507.02 193.754 1507.27ZM193.85 1530.6C193.85 1531.75 193.85 1532.94 193.85 1534.15C193.914 1535.3 193.978 1536.46 194.042 1537.61C194.746 1537.54 195.514 1537.35 196.346 1537.03C197.178 1536.71 198.01 1536.36 198.842 1535.98C199.674 1535.53 200.442 1535.08 201.146 1534.63C201.85 1534.18 202.426 1533.77 202.874 1533.38C202.298 1533.19 201.69 1533 201.05 1532.81C200.474 1532.55 199.866 1532.36 199.226 1532.23C198.33 1532.04 197.402 1531.85 196.442 1531.66C195.546 1531.4 194.682 1531.05 193.85 1530.6ZM253.052 1560.07C250.492 1560.07 247.932 1559.66 245.372 1558.82C242.812 1557.99 240.38 1556.84 238.076 1555.37C235.836 1553.83 233.82 1552.07 232.028 1550.09C230.3 1548.04 228.924 1545.83 227.9 1543.46C226.364 1539.94 225.372 1536.2 224.924 1532.23C224.476 1528.2 224.668 1524.26 225.5 1520.42C226.46 1516.01 228.156 1511.78 230.588 1507.75C233.02 1503.72 235.9 1500.17 239.228 1497.1C240.892 1495.62 242.684 1494.25 244.604 1492.97C246.588 1491.69 248.732 1491.05 251.036 1491.05C252.38 1491.05 253.532 1491.27 254.492 1491.72C256.092 1491.78 257.82 1492.1 259.676 1492.68C261.532 1493.19 263.324 1493.86 265.052 1494.7C266.844 1495.53 268.54 1496.46 270.14 1497.48C271.74 1498.44 273.116 1499.46 274.268 1500.55C276.124 1502.22 277.756 1504.1 279.164 1506.22C280.572 1508.26 281.756 1510.41 282.716 1512.65C283.932 1515.59 284.668 1518.73 284.924 1522.06C285.18 1525.32 284.956 1528.49 284.252 1531.56C283.484 1535.08 282.14 1538.54 280.22 1541.93C278.3 1545.32 275.964 1548.36 273.212 1551.05C270.46 1553.74 267.356 1555.91 263.9 1557.58C260.444 1559.24 256.828 1560.07 253.052 1560.07ZM252.956 1543.75C254.684 1543.75 256.38 1543.27 258.044 1542.31C259.708 1541.29 261.212 1540.04 262.556 1538.57C263.964 1537.1 265.148 1535.5 266.108 1533.77C267.068 1532.04 267.74 1530.41 268.124 1528.87C268.828 1526.38 268.924 1523.88 268.412 1521.38C267.708 1517.93 266.108 1515.11 263.612 1512.94C261.116 1510.76 258.236 1509.22 254.972 1508.33C254.268 1508.65 253.532 1508.87 252.764 1509C251.996 1509.06 251.228 1509.03 250.46 1508.9C248.924 1510.38 247.516 1512.01 246.236 1513.8C244.956 1515.53 243.868 1517.38 242.972 1519.37C242.076 1521.35 241.5 1523.46 241.244 1525.7C240.988 1527.94 241.052 1530.12 241.436 1532.23C241.628 1533.45 241.916 1534.63 242.3 1535.78C242.748 1536.94 243.324 1537.96 244.028 1538.86C245.052 1540.2 246.364 1541.35 247.964 1542.31C249.564 1543.27 251.228 1543.75 252.956 1543.75ZM302.758 1552.49C302.502 1554.09 301.894 1555.43 300.934 1556.52C299.974 1557.61 298.822 1558.41 297.478 1558.92C296.198 1559.5 294.822 1559.72 293.35 1559.59C291.878 1559.46 290.47 1558.95 289.126 1558.06C288.102 1557.42 287.27 1556.62 286.63 1555.66C286.054 1554.63 285.67 1553.58 285.478 1552.49C285.35 1551.34 285.446 1550.22 285.766 1549.13C286.086 1548.04 286.63 1547.02 287.398 1546.06C287.526 1545.42 287.686 1544.33 287.878 1542.79C288.134 1541.26 288.422 1539.5 288.742 1537.51C289.062 1535.53 289.382 1533.45 289.702 1531.27C290.086 1529.1 290.438 1527.02 290.758 1525.03C291.142 1523.05 291.462 1521.29 291.718 1519.75C292.038 1518.22 292.262 1517.13 292.39 1516.49C292.838 1514.76 293.67 1513.32 294.886 1512.17C296.102 1511.02 297.446 1510.22 298.918 1509.77C300.454 1509.32 302.022 1509.29 303.622 1509.67C305.222 1510.06 306.662 1510.92 307.942 1512.26L309.67 1514.28C311.526 1516.52 313.254 1518.86 314.854 1521.29C316.454 1523.72 318.086 1526.15 319.75 1528.58L325.222 1510.44C325.734 1508.65 326.662 1507.27 328.006 1506.31C329.35 1505.29 330.79 1504.71 332.326 1504.58C333.862 1504.39 335.366 1504.65 336.838 1505.35C338.374 1506.06 339.558 1507.24 340.39 1508.9C340.902 1509.8 341.19 1510.82 341.254 1511.98C341.318 1513.06 341.19 1514.09 340.87 1515.05C340.678 1515.82 340.326 1517.03 339.814 1518.7C339.302 1520.36 338.726 1522.25 338.086 1524.36C337.51 1526.47 336.87 1528.71 336.166 1531.08C335.462 1533.38 334.758 1535.59 334.054 1537.7C333.414 1539.75 332.806 1541.61 332.23 1543.27C331.654 1544.87 331.174 1546.02 330.79 1546.73C330.278 1547.75 329.638 1548.74 328.87 1549.7C328.102 1550.6 327.206 1551.34 326.182 1551.91C325.03 1552.55 323.718 1552.9 322.246 1552.97C320.838 1552.97 319.526 1552.71 318.31 1552.2C317.222 1551.69 316.23 1551.05 315.334 1550.28C314.438 1549.45 313.638 1548.55 312.934 1547.59C311.654 1545.74 310.406 1543.91 309.19 1542.12C307.974 1540.33 306.726 1538.5 305.446 1536.65C305.062 1539.34 304.646 1541.99 304.198 1544.62C303.75 1547.18 303.27 1549.8 302.758 1552.49ZM361.312 1555.08C360.544 1556.55 359.488 1557.64 358.144 1558.34C356.864 1559.11 355.52 1559.5 354.112 1559.5C352.448 1559.5 350.88 1559.02 349.408 1558.06C347.936 1557.16 346.912 1555.78 346.336 1553.93C345.056 1550.02 344.256 1546.02 343.936 1541.93C343.68 1537.77 343.552 1533.64 343.552 1529.54V1504.68C343.616 1503.34 343.808 1501.99 344.128 1500.65C344.448 1499.3 344.928 1498.12 345.568 1497.1C346.272 1496.01 347.168 1495.14 348.256 1494.5C349.344 1493.86 350.656 1493.54 352.192 1493.54C353.536 1493.54 354.784 1493.86 355.936 1494.5C357.088 1495.08 358.016 1495.88 358.72 1496.9C359.488 1497.93 360 1499.11 360.256 1500.46C360.512 1501.74 360.384 1503.08 359.872 1504.49C359.872 1505.19 359.872 1506.44 359.872 1508.23C359.872 1509.96 359.872 1511.98 359.872 1514.28C359.872 1516.52 359.872 1518.92 359.872 1521.48C359.872 1523.98 359.872 1526.34 359.872 1528.58C359.872 1530.82 359.872 1532.84 359.872 1534.63C359.936 1536.36 360 1537.58 360.064 1538.28C360.256 1542.06 360.864 1545.61 361.888 1548.94C362.464 1551.05 362.272 1553.1 361.312 1555.08ZM392.552 1560.07C389.992 1560.07 387.432 1559.66 384.872 1558.82C382.312 1557.99 379.88 1556.84 377.576 1555.37C375.336 1553.83 373.32 1552.07 371.528 1550.09C369.8 1548.04 368.424 1545.83 367.4 1543.46C365.864 1539.94 364.872 1536.2 364.424 1532.23C363.976 1528.2 364.168 1524.26 365 1520.42C365.96 1516.01 367.656 1511.78 370.088 1507.75C372.52 1503.72 375.4 1500.17 378.728 1497.1C380.392 1495.62 382.184 1494.25 384.104 1492.97C386.088 1491.69 388.232 1491.05 390.536 1491.05C391.88 1491.05 393.032 1491.27 393.992 1491.72C395.592 1491.78 397.32 1492.1 399.176 1492.68C401.032 1493.19 402.824 1493.86 404.552 1494.7C406.344 1495.53 408.04 1496.46 409.64 1497.48C411.24 1498.44 412.616 1499.46 413.768 1500.55C415.624 1502.22 417.256 1504.1 418.664 1506.22C420.072 1508.26 421.256 1510.41 422.216 1512.65C423.432 1515.59 424.168 1518.73 424.424 1522.06C424.68 1525.32 424.456 1528.49 423.752 1531.56C422.984 1535.08 421.64 1538.54 419.72 1541.93C417.8 1545.32 415.464 1548.36 412.712 1551.05C409.96 1553.74 406.856 1555.91 403.4 1557.58C399.944 1559.24 396.328 1560.07 392.552 1560.07ZM392.456 1543.75C394.184 1543.75 395.88 1543.27 397.544 1542.31C399.208 1541.29 400.712 1540.04 402.056 1538.57C403.464 1537.1 404.648 1535.5 405.608 1533.77C406.568 1532.04 407.24 1530.41 407.624 1528.87C408.328 1526.38 408.424 1523.88 407.912 1521.38C407.208 1517.93 405.608 1515.11 403.112 1512.94C400.616 1510.76 397.736 1509.22 394.472 1508.33C393.768 1508.65 393.032 1508.87 392.264 1509C391.496 1509.06 390.728 1509.03 389.96 1508.9C388.424 1510.38 387.016 1512.01 385.736 1513.8C384.456 1515.53 383.368 1517.38 382.472 1519.37C381.576 1521.35 381 1523.46 380.744 1525.7C380.488 1527.94 380.552 1530.12 380.936 1532.23C381.128 1533.45 381.416 1534.63 381.8 1535.78C382.248 1536.94 382.824 1537.96 383.528 1538.86C384.552 1540.2 385.864 1541.35 387.464 1542.31C389.064 1543.27 390.728 1543.75 392.456 1543.75ZM178.197 1669.02C177.365 1669.79 176.405 1670.4 175.317 1670.85C174.293 1671.23 173.237 1671.39 172.149 1671.33C171.061 1671.26 170.005 1671.01 168.981 1670.56C167.957 1670.05 167.029 1669.31 166.197 1668.35C165.173 1667.14 164.565 1665.7 164.373 1664.03C163.733 1655.58 163.445 1647.17 163.509 1638.78C163.637 1630.4 163.637 1621.95 163.509 1613.44C163.509 1610.94 164.341 1608.93 166.005 1607.39C167.477 1605.98 169.077 1605.22 170.805 1605.09C172.533 1604.96 174.133 1605.31 175.605 1606.14C177.717 1605.44 179.893 1605.09 182.133 1605.09C184.437 1605.02 186.645 1605.22 188.757 1605.66C191.189 1606.18 193.557 1606.91 195.861 1607.87C198.229 1608.77 200.373 1609.98 202.293 1611.52C203.573 1612.54 204.725 1613.66 205.749 1614.88C206.773 1616.1 207.637 1617.44 208.341 1618.91C208.789 1619.94 209.141 1620.99 209.397 1622.08C209.653 1623.1 209.781 1624.16 209.781 1625.25C209.845 1626.34 209.749 1627.42 209.493 1628.51C209.237 1629.6 208.917 1630.66 208.533 1631.68C207.957 1633.02 207.157 1634.24 206.133 1635.33C205.109 1636.35 204.053 1637.31 202.965 1638.21C204.437 1639.62 205.493 1641.31 206.133 1643.3C206.837 1645.22 207.093 1647.17 206.901 1649.15C206.773 1650.3 206.485 1651.46 206.037 1652.61C205.653 1653.76 205.109 1654.82 204.405 1655.78C202.869 1658.02 200.981 1659.97 198.741 1661.63C196.501 1663.3 194.165 1664.7 191.733 1665.86C189.877 1666.69 187.957 1667.39 185.973 1667.97C184.053 1668.54 182.069 1668.9 180.021 1669.02H178.197ZM179.925 1622.27V1631.39C180.501 1631.07 181.045 1630.82 181.557 1630.62C182.133 1630.43 182.677 1630.27 183.189 1630.14C183.765 1629.95 184.341 1629.76 184.917 1629.57C186.389 1629.06 187.797 1628.45 189.141 1627.74C190.549 1626.98 191.861 1626.11 193.077 1625.15C192.373 1624.45 191.605 1623.9 190.773 1623.52C189.941 1623.07 189.077 1622.69 188.181 1622.37C187.285 1622.05 186.389 1621.82 185.493 1621.7C184.661 1621.5 183.797 1621.41 182.901 1621.41C182.709 1621.41 182.389 1621.41 181.941 1621.41C181.493 1621.41 181.205 1621.47 181.077 1621.6C180.821 1621.79 180.437 1622.02 179.925 1622.27ZM180.021 1645.6C180.021 1646.75 180.021 1647.94 180.021 1649.15C180.085 1650.3 180.149 1651.46 180.213 1652.61C180.917 1652.54 181.685 1652.35 182.517 1652.03C183.349 1651.71 184.181 1651.36 185.013 1650.98C185.845 1650.53 186.613 1650.08 187.317 1649.63C188.021 1649.18 188.597 1648.77 189.045 1648.38C188.469 1648.19 187.861 1648 187.221 1647.81C186.645 1647.55 186.037 1647.36 185.397 1647.23C184.501 1647.04 183.573 1646.85 182.613 1646.66C181.717 1646.4 180.853 1646.05 180.021 1645.6ZM239.224 1675.07C236.664 1675.07 234.104 1674.66 231.544 1673.82C228.984 1672.99 226.552 1671.84 224.248 1670.37C222.008 1668.83 219.992 1667.07 218.2 1665.09C216.472 1663.04 215.096 1660.83 214.072 1658.46C212.536 1654.94 211.544 1651.2 211.096 1647.23C210.648 1643.2 210.84 1639.26 211.672 1635.42C212.632 1631.01 214.328 1626.78 216.76 1622.75C219.192 1618.72 222.072 1615.17 225.4 1612.1C227.064 1610.62 228.856 1609.25 230.776 1607.97C232.76 1606.69 234.904 1606.05 237.208 1606.05C238.552 1606.05 239.704 1606.27 240.664 1606.72C242.264 1606.78 243.992 1607.1 245.848 1607.68C247.704 1608.19 249.496 1608.86 251.224 1609.7C253.016 1610.53 254.712 1611.46 256.312 1612.48C257.912 1613.44 259.288 1614.46 260.44 1615.55C262.296 1617.22 263.928 1619.1 265.336 1621.22C266.744 1623.26 267.928 1625.41 268.888 1627.65C270.104 1630.59 270.84 1633.73 271.096 1637.06C271.352 1640.32 271.128 1643.49 270.424 1646.56C269.656 1650.08 268.312 1653.54 266.392 1656.93C264.472 1660.32 262.136 1663.36 259.384 1666.05C256.632 1668.74 253.528 1670.91 250.072 1672.58C246.616 1674.24 243 1675.07 239.224 1675.07ZM239.128 1658.75C240.856 1658.75 242.552 1658.27 244.216 1657.31C245.88 1656.29 247.384 1655.04 248.728 1653.57C250.136 1652.1 251.32 1650.5 252.28 1648.77C253.24 1647.04 253.912 1645.41 254.296 1643.87C255 1641.38 255.096 1638.88 254.584 1636.38C253.88 1632.93 252.28 1630.11 249.784 1627.94C247.288 1625.76 244.408 1624.22 241.144 1623.33C240.44 1623.65 239.704 1623.87 238.936 1624C238.168 1624.06 237.4 1624.03 236.632 1623.9C235.096 1625.38 233.688 1627.01 232.408 1628.8C231.128 1630.53 230.04 1632.38 229.144 1634.37C228.248 1636.35 227.672 1638.46 227.416 1640.7C227.16 1642.94 227.224 1645.12 227.608 1647.23C227.8 1648.45 228.088 1649.63 228.472 1650.78C228.92 1651.94 229.496 1652.96 230.2 1653.86C231.224 1655.2 232.536 1656.35 234.136 1657.31C235.736 1658.27 237.4 1658.75 239.128 1658.75ZM300.63 1675.07C298.07 1675.07 295.51 1674.66 292.95 1673.82C290.39 1672.99 287.958 1671.84 285.654 1670.37C283.414 1668.83 281.398 1667.07 279.606 1665.09C277.878 1663.04 276.502 1660.83 275.478 1658.46C273.942 1654.94 272.95 1651.2 272.502 1647.23C272.054 1643.2 272.246 1639.26 273.078 1635.42C274.038 1631.01 275.734 1626.78 278.166 1622.75C280.598 1618.72 283.478 1615.17 286.806 1612.1C288.47 1610.62 290.262 1609.25 292.182 1607.97C294.166 1606.69 296.31 1606.05 298.614 1606.05C299.958 1606.05 301.11 1606.27 302.07 1606.72C303.67 1606.78 305.398 1607.1 307.254 1607.68C309.11 1608.19 310.902 1608.86 312.63 1609.7C314.422 1610.53 316.118 1611.46 317.718 1612.48C319.318 1613.44 320.694 1614.46 321.846 1615.55C323.702 1617.22 325.334 1619.1 326.742 1621.22C328.15 1623.26 329.334 1625.41 330.294 1627.65C331.51 1630.59 332.246 1633.73 332.502 1637.06C332.758 1640.32 332.534 1643.49 331.83 1646.56C331.062 1650.08 329.718 1653.54 327.798 1656.93C325.878 1660.32 323.542 1663.36 320.79 1666.05C318.038 1668.74 314.934 1670.91 311.478 1672.58C308.022 1674.24 304.406 1675.07 300.63 1675.07ZM300.534 1658.75C302.262 1658.75 303.958 1658.27 305.622 1657.31C307.286 1656.29 308.79 1655.04 310.134 1653.57C311.542 1652.1 312.726 1650.5 313.686 1648.77C314.646 1647.04 315.318 1645.41 315.702 1643.87C316.406 1641.38 316.502 1638.88 315.99 1636.38C315.286 1632.93 313.686 1630.11 311.19 1627.94C308.694 1625.76 305.814 1624.22 302.55 1623.33C301.846 1623.65 301.11 1623.87 300.342 1624C299.574 1624.06 298.806 1624.03 298.038 1623.9C296.502 1625.38 295.094 1627.01 293.814 1628.8C292.534 1630.53 291.446 1632.38 290.55 1634.37C289.654 1636.35 289.078 1638.46 288.822 1640.7C288.566 1642.94 288.63 1645.12 289.014 1647.23C289.206 1648.45 289.494 1649.63 289.878 1650.78C290.326 1651.94 290.902 1652.96 291.606 1653.86C292.63 1655.2 293.942 1656.35 295.542 1657.31C297.142 1658.27 298.806 1658.75 300.534 1658.75ZM363.501 1671.9C362.285 1673.25 360.877 1674.05 359.277 1674.3C357.677 1674.62 356.141 1674.53 354.669 1674.02C353.261 1673.5 352.045 1672.61 351.021 1671.33C350.061 1670.05 349.517 1668.51 349.389 1666.72C349.389 1665.95 349.389 1664.7 349.389 1662.98C349.389 1661.18 349.389 1659.14 349.389 1656.83C349.453 1654.53 349.517 1652.1 349.581 1649.54C349.645 1646.98 349.709 1644.54 349.773 1642.24C349.837 1639.94 349.901 1637.92 349.965 1636.19C350.029 1634.4 350.061 1633.12 350.061 1632.35V1629.09C348.525 1629.09 347.085 1629.09 345.741 1629.09C344.461 1629.09 343.597 1629.12 343.149 1629.18C341.549 1629.89 339.917 1630.11 338.253 1629.86C336.653 1629.54 335.245 1628.77 334.029 1627.55C333.069 1626.59 332.397 1625.5 332.013 1624.29C331.565 1623.07 331.405 1621.86 331.533 1620.64C331.597 1619.42 331.949 1618.27 332.589 1617.18C333.229 1616.1 334.125 1615.17 335.277 1614.4C336.493 1613.63 337.837 1613.18 339.309 1613.06C340.845 1612.93 342.349 1612.83 343.821 1612.77C344.205 1612.77 345.005 1612.77 346.221 1612.77C347.437 1612.77 348.749 1612.77 350.157 1612.77C351.565 1612.77 352.877 1612.77 354.093 1612.77C355.309 1612.77 356.109 1612.77 356.493 1612.77C359.757 1612.64 362.957 1612.51 366.093 1612.38C369.293 1612.26 372.525 1612.19 375.789 1612.19C377.069 1612.19 378.317 1612.22 379.533 1612.29C380.813 1612.29 382.061 1612.45 383.277 1612.77C385.453 1613.15 387.181 1614.3 388.461 1616.22C389.421 1617.76 389.869 1619.33 389.805 1620.93C389.741 1622.53 389.261 1623.97 388.365 1625.25C387.533 1626.53 386.381 1627.52 384.909 1628.22C383.501 1628.93 381.901 1629.12 380.109 1628.8C379.661 1628.67 378.925 1628.61 377.901 1628.61C376.941 1628.54 375.821 1628.51 374.541 1628.51C373.325 1628.51 372.013 1628.54 370.605 1628.61C369.197 1628.61 367.789 1628.64 366.381 1628.7C366.317 1631.2 366.253 1634.34 366.189 1638.11C366.125 1641.89 366.029 1645.7 365.901 1649.54C365.837 1653.31 365.773 1656.77 365.709 1659.9C365.709 1662.98 365.709 1665.06 365.709 1666.14C365.709 1668.38 364.973 1670.3 363.501 1671.9ZM427.608 1672.96C425.496 1672.96 423.608 1672.22 421.944 1670.75C420.28 1669.22 419.416 1667.23 419.352 1664.8C419.288 1661.79 419.224 1658.85 419.16 1655.97C419.096 1653.02 419.032 1650.05 418.968 1647.04C417.496 1647.23 415.928 1647.46 414.264 1647.71C412.664 1647.97 411.608 1648.19 411.096 1648.38C410.776 1648.51 410.424 1648.61 410.04 1648.67C409.656 1648.74 409.304 1648.8 408.984 1648.86C408.728 1651.68 408.408 1654.46 408.024 1657.22C407.704 1659.9 407.384 1662.66 407.064 1665.47C406.872 1667.52 405.976 1669.25 404.376 1670.66C402.84 1672 401.048 1672.67 399 1672.67C397.912 1672.67 396.856 1672.45 395.832 1672C394.808 1671.55 393.912 1670.94 393.144 1670.18C392.376 1669.41 391.768 1668.48 391.32 1667.39C390.936 1666.3 390.776 1665.12 390.84 1663.84C391.16 1660.06 391.576 1656.35 392.088 1652.7C392.664 1648.99 392.952 1645.25 392.952 1641.47C393.016 1637.06 392.76 1632.7 392.184 1628.42C391.672 1624.06 391.352 1619.68 391.224 1615.26C391.16 1612.83 391.928 1610.82 393.528 1609.22C395.192 1607.62 397.112 1606.82 399.288 1606.82C401.4 1606.82 403.256 1607.55 404.856 1609.02C406.456 1610.43 407.32 1612.22 407.448 1614.4C407.64 1617.34 407.896 1620.29 408.216 1623.23C408.536 1626.11 408.792 1629.06 408.984 1632.06C409.048 1632 409.208 1631.97 409.464 1631.97C409.592 1631.97 409.944 1631.94 410.52 1631.87C411.16 1631.74 411.576 1631.65 411.768 1631.58C412.984 1631.39 414.168 1631.23 415.32 1631.1C416.536 1630.91 417.752 1630.72 418.968 1630.53C418.968 1628.42 419 1626.3 419.064 1624.19C419.192 1622.08 419.32 1619.97 419.448 1617.86C419.512 1616.51 419.704 1615.23 420.024 1614.02C420.408 1612.74 420.92 1611.62 421.56 1610.66C422.264 1609.7 423.16 1608.93 424.248 1608.35C425.336 1607.71 426.648 1607.39 428.184 1607.39C430.168 1607.39 431.832 1607.97 433.176 1609.12C434.52 1610.21 435.608 1611.62 436.44 1613.34C437.208 1614.82 437.496 1616.35 437.304 1617.95C437.176 1619.49 436.6 1620.9 435.576 1622.18C435.192 1629.28 435.064 1636.35 435.192 1643.39C435.384 1650.37 435.544 1657.41 435.672 1664.51C435.672 1665.66 435.448 1666.75 435 1667.78C434.616 1668.8 434.04 1669.7 433.272 1670.46C432.568 1671.23 431.736 1671.84 430.776 1672.29C429.816 1672.74 428.76 1672.96 427.608 1672.96Z" fill="white"/>
</svg>
