<svg width="1200" height="1800" viewBox="0 0 1200 1800" fill="none" xmlns="http://www.w3.org/2000/svg">
<rect width="1200" height="1800" fill="#1C1C1C"/>
<rect width="1120" height="596" transform="translate(40 40)" fill="white"/>
<rect width="1120" height="596" transform="translate(40 676)" fill="white"/>
<path d="M257.284 1577.53C256.175 1578.56 254.895 1579.37 253.444 1579.96C252.079 1580.48 250.671 1580.69 249.22 1580.6C247.769 1580.52 246.361 1580.18 244.996 1579.58C243.631 1578.9 242.393 1577.92 241.284 1576.64C239.919 1575.01 239.108 1573.09 238.852 1570.88C237.999 1559.61 237.615 1548.39 237.7 1537.21C237.871 1526.03 237.871 1514.77 237.7 1503.42C237.7 1500.09 238.809 1497.4 241.028 1495.36C242.991 1493.48 245.124 1492.45 247.428 1492.28C249.732 1492.11 251.865 1492.58 253.828 1493.69C256.644 1492.75 259.545 1492.28 262.532 1492.28C265.604 1492.2 268.548 1492.45 271.364 1493.05C274.607 1493.73 277.764 1494.72 280.836 1496C283.993 1497.19 286.852 1498.81 289.412 1500.86C291.119 1502.23 292.655 1503.72 294.02 1505.34C295.385 1506.96 296.537 1508.75 297.476 1510.72C298.073 1512.08 298.543 1513.49 298.884 1514.94C299.225 1516.31 299.396 1517.71 299.396 1519.16C299.481 1520.61 299.353 1522.07 299.012 1523.52C298.671 1524.97 298.244 1526.37 297.732 1527.74C296.964 1529.53 295.897 1531.15 294.532 1532.6C293.167 1533.97 291.759 1535.25 290.308 1536.44C292.271 1538.32 293.679 1540.58 294.532 1543.23C295.471 1545.79 295.812 1548.39 295.556 1551.04C295.385 1552.57 295.001 1554.11 294.404 1555.64C293.892 1557.18 293.167 1558.59 292.228 1559.87C290.18 1562.85 287.663 1565.46 284.676 1567.68C281.689 1569.89 278.575 1571.77 275.332 1573.31C272.857 1574.42 270.297 1575.36 267.652 1576.12C265.092 1576.89 262.447 1577.36 259.716 1577.53H257.284ZM259.588 1515.2V1527.36C260.356 1526.93 261.081 1526.59 261.764 1526.33C262.532 1526.08 263.257 1525.86 263.94 1525.69C264.708 1525.44 265.476 1525.18 266.244 1524.92C268.207 1524.24 270.084 1523.43 271.876 1522.49C273.753 1521.47 275.503 1520.32 277.124 1519.04C276.185 1518.1 275.161 1517.37 274.052 1516.86C272.943 1516.26 271.791 1515.75 270.596 1515.32C269.401 1514.9 268.207 1514.6 267.012 1514.43C265.903 1514.17 264.751 1514.04 263.556 1514.04C263.3 1514.04 262.873 1514.04 262.276 1514.04C261.679 1514.04 261.295 1514.13 261.124 1514.3C260.783 1514.56 260.271 1514.85 259.588 1515.2ZM259.716 1546.3C259.716 1547.84 259.716 1549.41 259.716 1551.04C259.801 1552.57 259.887 1554.11 259.972 1555.64C260.911 1555.56 261.935 1555.3 263.044 1554.88C264.153 1554.45 265.263 1553.98 266.372 1553.47C267.481 1552.87 268.505 1552.27 269.444 1551.68C270.383 1551.08 271.151 1550.52 271.748 1550.01C270.98 1549.76 270.169 1549.5 269.316 1549.24C268.548 1548.9 267.737 1548.65 266.884 1548.48C265.689 1548.22 264.452 1547.96 263.172 1547.71C261.977 1547.37 260.825 1546.9 259.716 1546.3ZM338.653 1585.6C335.24 1585.6 331.826 1585.04 328.413 1583.93C325 1582.82 321.757 1581.29 318.685 1579.32C315.698 1577.28 313.01 1574.93 310.621 1572.28C308.317 1569.55 306.482 1566.61 305.117 1563.45C303.069 1558.76 301.746 1553.77 301.149 1548.48C300.552 1543.1 300.808 1537.85 301.917 1532.73C303.197 1526.84 305.458 1521.21 308.701 1515.84C311.944 1510.46 315.784 1505.72 320.221 1501.63C322.44 1499.67 324.829 1497.83 327.389 1496.12C330.034 1494.42 332.893 1493.56 335.965 1493.56C337.757 1493.56 339.293 1493.86 340.573 1494.46C342.706 1494.55 345.01 1494.97 347.485 1495.74C349.96 1496.42 352.349 1497.32 354.653 1498.43C357.042 1499.54 359.304 1500.77 361.437 1502.14C363.57 1503.42 365.405 1504.79 366.941 1506.24C369.416 1508.45 371.592 1510.97 373.469 1513.79C375.346 1516.52 376.925 1519.38 378.205 1522.36C379.826 1526.29 380.808 1530.47 381.149 1534.91C381.49 1539.26 381.192 1543.48 380.253 1547.58C379.229 1552.27 377.437 1556.88 374.877 1561.4C372.317 1565.93 369.202 1569.98 365.533 1573.56C361.864 1577.15 357.725 1580.05 353.117 1582.27C348.509 1584.49 343.688 1585.6 338.653 1585.6ZM338.525 1563.84C340.829 1563.84 343.09 1563.2 345.309 1561.92C347.528 1560.55 349.533 1558.89 351.325 1556.92C353.202 1554.96 354.781 1552.83 356.061 1550.52C357.341 1548.22 358.237 1546.04 358.749 1544C359.688 1540.67 359.816 1537.34 359.133 1534.01C358.194 1529.4 356.061 1525.65 352.733 1522.75C349.405 1519.85 345.565 1517.8 341.213 1516.6C340.274 1517.03 339.293 1517.33 338.269 1517.5C337.245 1517.59 336.221 1517.54 335.197 1517.37C333.149 1519.33 331.272 1521.51 329.565 1523.9C327.858 1526.2 326.408 1528.68 325.213 1531.32C324.018 1533.97 323.25 1536.79 322.909 1539.77C322.568 1542.76 322.653 1545.66 323.165 1548.48C323.421 1550.1 323.805 1551.68 324.317 1553.21C324.914 1554.75 325.682 1556.11 326.621 1557.31C327.986 1559.1 329.736 1560.64 331.869 1561.92C334.002 1563.2 336.221 1563.84 338.525 1563.84ZM404.927 1575.48C404.586 1577.62 403.775 1579.41 402.495 1580.86C401.215 1582.31 399.679 1583.38 397.887 1584.06C396.18 1584.83 394.346 1585.13 392.383 1584.96C390.42 1584.79 388.543 1584.1 386.751 1582.91C385.386 1582.05 384.276 1580.99 383.423 1579.71C382.655 1578.34 382.143 1576.93 381.887 1575.48C381.716 1573.95 381.844 1572.45 382.271 1571C382.698 1569.55 383.423 1568.19 384.447 1566.91C384.618 1566.05 384.831 1564.6 385.087 1562.56C385.428 1560.51 385.812 1558.16 386.239 1555.52C386.666 1552.87 387.092 1550.1 387.519 1547.2C388.031 1544.29 388.5 1541.52 388.927 1538.88C389.439 1536.23 389.866 1533.88 390.207 1531.84C390.634 1529.79 390.932 1528.34 391.103 1527.48C391.7 1525.18 392.81 1523.26 394.431 1521.72C396.052 1520.19 397.844 1519.12 399.807 1518.52C401.855 1517.93 403.946 1517.88 406.079 1518.4C408.212 1518.91 410.132 1520.06 411.839 1521.85L414.143 1524.54C416.618 1527.53 418.922 1530.64 421.055 1533.88C423.188 1537.13 425.364 1540.37 427.583 1543.61L434.879 1519.42C435.562 1517.03 436.799 1515.2 438.591 1513.92C440.383 1512.55 442.303 1511.78 444.351 1511.61C446.399 1511.36 448.404 1511.7 450.367 1512.64C452.415 1513.57 453.994 1515.15 455.103 1517.37C455.786 1518.57 456.17 1519.93 456.255 1521.47C456.34 1522.92 456.17 1524.28 455.743 1525.56C455.487 1526.59 455.018 1528.21 454.335 1530.43C453.652 1532.65 452.884 1535.16 452.031 1537.98C451.263 1540.8 450.41 1543.78 449.471 1546.94C448.532 1550.01 447.594 1552.96 446.655 1555.77C445.802 1558.5 444.991 1560.98 444.223 1563.2C443.455 1565.33 442.815 1566.87 442.303 1567.8C441.62 1569.17 440.767 1570.49 439.743 1571.77C438.719 1572.97 437.524 1573.95 436.159 1574.72C434.623 1575.57 432.874 1576.04 430.911 1576.12C429.034 1576.12 427.284 1575.78 425.663 1575.1C424.212 1574.42 422.89 1573.56 421.695 1572.54C420.5 1571.43 419.434 1570.24 418.495 1568.96C416.788 1566.48 415.124 1564.05 413.503 1561.66C411.882 1559.27 410.218 1556.84 408.511 1554.36C407.999 1557.95 407.444 1561.49 406.847 1564.99C406.25 1568.4 405.61 1571.9 404.927 1575.48ZM482.999 1578.94C481.975 1580.9 480.567 1582.35 478.775 1583.29C477.068 1584.32 475.276 1584.83 473.399 1584.83C471.18 1584.83 469.09 1584.19 467.127 1582.91C465.164 1581.71 463.799 1579.88 463.031 1577.4C461.324 1572.2 460.258 1566.87 459.831 1561.4C459.49 1555.86 459.319 1550.35 459.319 1544.89V1511.74C459.404 1509.95 459.66 1508.16 460.087 1506.36C460.514 1504.57 461.154 1502.99 462.007 1501.63C462.946 1500.18 464.14 1499.03 465.591 1498.17C467.042 1497.32 468.791 1496.89 470.839 1496.89C472.631 1496.89 474.295 1497.32 475.831 1498.17C477.367 1498.94 478.604 1500.01 479.543 1501.37C480.567 1502.74 481.25 1504.32 481.591 1506.11C481.932 1507.81 481.762 1509.61 481.079 1511.48C481.079 1512.42 481.079 1514.09 481.079 1516.48C481.079 1518.78 481.079 1521.47 481.079 1524.54C481.079 1527.53 481.079 1530.73 481.079 1534.14C481.079 1537.47 481.079 1540.63 481.079 1543.61C481.079 1546.6 481.079 1549.29 481.079 1551.68C481.164 1553.98 481.25 1555.6 481.335 1556.54C481.591 1561.57 482.402 1566.31 483.767 1570.75C484.535 1573.56 484.279 1576.29 482.999 1578.94ZM524.653 1585.6C521.24 1585.6 517.826 1585.04 514.413 1583.93C511 1582.82 507.757 1581.29 504.685 1579.32C501.698 1577.28 499.01 1574.93 496.621 1572.28C494.317 1569.55 492.482 1566.61 491.117 1563.45C489.069 1558.76 487.746 1553.77 487.149 1548.48C486.552 1543.1 486.808 1537.85 487.917 1532.73C489.197 1526.84 491.458 1521.21 494.701 1515.84C497.944 1510.46 501.784 1505.72 506.221 1501.63C508.44 1499.67 510.829 1497.83 513.389 1496.12C516.034 1494.42 518.893 1493.56 521.965 1493.56C523.757 1493.56 525.293 1493.86 526.573 1494.46C528.706 1494.55 531.01 1494.97 533.485 1495.74C535.96 1496.42 538.349 1497.32 540.653 1498.43C543.042 1499.54 545.304 1500.77 547.437 1502.14C549.57 1503.42 551.405 1504.79 552.941 1506.24C555.416 1508.45 557.592 1510.97 559.469 1513.79C561.346 1516.52 562.925 1519.38 564.205 1522.36C565.826 1526.29 566.808 1530.47 567.149 1534.91C567.49 1539.26 567.192 1543.48 566.253 1547.58C565.229 1552.27 563.437 1556.88 560.877 1561.4C558.317 1565.93 555.202 1569.98 551.533 1573.56C547.864 1577.15 543.725 1580.05 539.117 1582.27C534.509 1584.49 529.688 1585.6 524.653 1585.6ZM524.525 1563.84C526.829 1563.84 529.09 1563.2 531.309 1561.92C533.528 1560.55 535.533 1558.89 537.325 1556.92C539.202 1554.96 540.781 1552.83 542.061 1550.52C543.341 1548.22 544.237 1546.04 544.749 1544C545.688 1540.67 545.816 1537.34 545.133 1534.01C544.194 1529.4 542.061 1525.65 538.733 1522.75C535.405 1519.85 531.565 1517.8 527.213 1516.6C526.274 1517.03 525.293 1517.33 524.269 1517.5C523.245 1517.59 522.221 1517.54 521.197 1517.37C519.149 1519.33 517.272 1521.51 515.565 1523.9C513.858 1526.2 512.408 1528.68 511.213 1531.32C510.018 1533.97 509.25 1536.79 508.909 1539.77C508.568 1542.76 508.653 1545.66 509.165 1548.48C509.421 1550.1 509.805 1551.68 510.317 1553.21C510.914 1554.75 511.682 1556.11 512.621 1557.31C513.986 1559.1 515.736 1560.64 517.869 1561.92C520.002 1563.2 522.221 1563.84 524.525 1563.84ZM617.159 1577.53C616.05 1578.56 614.77 1579.37 613.319 1579.96C611.954 1580.48 610.546 1580.69 609.095 1580.6C607.644 1580.52 606.236 1580.18 604.871 1579.58C603.506 1578.9 602.268 1577.92 601.159 1576.64C599.794 1575.01 598.983 1573.09 598.727 1570.88C597.874 1559.61 597.49 1548.39 597.575 1537.21C597.746 1526.03 597.746 1514.77 597.575 1503.42C597.575 1500.09 598.684 1497.4 600.903 1495.36C602.866 1493.48 604.999 1492.45 607.303 1492.28C609.607 1492.11 611.74 1492.58 613.703 1493.69C616.519 1492.75 619.42 1492.28 622.407 1492.28C625.479 1492.2 628.423 1492.45 631.239 1493.05C634.482 1493.73 637.639 1494.72 640.711 1496C643.868 1497.19 646.727 1498.81 649.287 1500.86C650.994 1502.23 652.53 1503.72 653.895 1505.34C655.26 1506.96 656.412 1508.75 657.351 1510.72C657.948 1512.08 658.418 1513.49 658.759 1514.94C659.1 1516.31 659.271 1517.71 659.271 1519.16C659.356 1520.61 659.228 1522.07 658.887 1523.52C658.546 1524.97 658.119 1526.37 657.607 1527.74C656.839 1529.53 655.772 1531.15 654.407 1532.6C653.042 1533.97 651.634 1535.25 650.183 1536.44C652.146 1538.32 653.554 1540.58 654.407 1543.23C655.346 1545.79 655.687 1548.39 655.431 1551.04C655.26 1552.57 654.876 1554.11 654.279 1555.64C653.767 1557.18 653.042 1558.59 652.103 1559.87C650.055 1562.85 647.538 1565.46 644.551 1567.68C641.564 1569.89 638.45 1571.77 635.207 1573.31C632.732 1574.42 630.172 1575.36 627.527 1576.12C624.967 1576.89 622.322 1577.36 619.591 1577.53H617.159ZM619.463 1515.2V1527.36C620.231 1526.93 620.956 1526.59 621.639 1526.33C622.407 1526.08 623.132 1525.86 623.815 1525.69C624.583 1525.44 625.351 1525.18 626.119 1524.92C628.082 1524.24 629.959 1523.43 631.751 1522.49C633.628 1521.47 635.378 1520.32 636.999 1519.04C636.06 1518.1 635.036 1517.37 633.927 1516.86C632.818 1516.26 631.666 1515.75 630.471 1515.32C629.276 1514.9 628.082 1514.6 626.887 1514.43C625.778 1514.17 624.626 1514.04 623.431 1514.04C623.175 1514.04 622.748 1514.04 622.151 1514.04C621.554 1514.04 621.17 1514.13 620.999 1514.3C620.658 1514.56 620.146 1514.85 619.463 1515.2ZM619.591 1546.3C619.591 1547.84 619.591 1549.41 619.591 1551.04C619.676 1552.57 619.762 1554.11 619.847 1555.64C620.786 1555.56 621.81 1555.3 622.919 1554.88C624.028 1554.45 625.138 1553.98 626.247 1553.47C627.356 1552.87 628.38 1552.27 629.319 1551.68C630.258 1551.08 631.026 1550.52 631.623 1550.01C630.855 1549.76 630.044 1549.5 629.191 1549.24C628.423 1548.9 627.612 1548.65 626.759 1548.48C625.564 1548.22 624.327 1547.96 623.047 1547.71C621.852 1547.37 620.7 1546.9 619.591 1546.3ZM698.528 1585.6C695.115 1585.6 691.701 1585.04 688.288 1583.93C684.875 1582.82 681.632 1581.29 678.56 1579.32C675.573 1577.28 672.885 1574.93 670.496 1572.28C668.192 1569.55 666.357 1566.61 664.992 1563.45C662.944 1558.76 661.621 1553.77 661.024 1548.48C660.427 1543.1 660.683 1537.85 661.792 1532.73C663.072 1526.84 665.333 1521.21 668.576 1515.84C671.819 1510.46 675.659 1505.72 680.096 1501.63C682.315 1499.67 684.704 1497.83 687.264 1496.12C689.909 1494.42 692.768 1493.56 695.84 1493.56C697.632 1493.56 699.168 1493.86 700.448 1494.46C702.581 1494.55 704.885 1494.97 707.36 1495.74C709.835 1496.42 712.224 1497.32 714.528 1498.43C716.917 1499.54 719.179 1500.77 721.312 1502.14C723.445 1503.42 725.28 1504.79 726.816 1506.24C729.291 1508.45 731.467 1510.97 733.344 1513.79C735.221 1516.52 736.8 1519.38 738.08 1522.36C739.701 1526.29 740.683 1530.47 741.024 1534.91C741.365 1539.26 741.067 1543.48 740.128 1547.58C739.104 1552.27 737.312 1556.88 734.752 1561.4C732.192 1565.93 729.077 1569.98 725.408 1573.56C721.739 1577.15 717.6 1580.05 712.992 1582.27C708.384 1584.49 703.563 1585.6 698.528 1585.6ZM698.4 1563.84C700.704 1563.84 702.965 1563.2 705.184 1561.92C707.403 1560.55 709.408 1558.89 711.2 1556.92C713.077 1554.96 714.656 1552.83 715.936 1550.52C717.216 1548.22 718.112 1546.04 718.624 1544C719.563 1540.67 719.691 1537.34 719.008 1534.01C718.069 1529.4 715.936 1525.65 712.608 1522.75C709.28 1519.85 705.44 1517.8 701.088 1516.6C700.149 1517.03 699.168 1517.33 698.144 1517.5C697.12 1517.59 696.096 1517.54 695.072 1517.37C693.024 1519.33 691.147 1521.51 689.44 1523.9C687.733 1526.2 686.283 1528.68 685.088 1531.32C683.893 1533.97 683.125 1536.79 682.784 1539.77C682.443 1542.76 682.528 1545.66 683.04 1548.48C683.296 1550.1 683.68 1551.68 684.192 1553.21C684.789 1554.75 685.557 1556.11 686.496 1557.31C687.861 1559.1 689.611 1560.64 691.744 1561.92C693.877 1563.2 696.096 1563.84 698.4 1563.84ZM780.403 1585.6C776.99 1585.6 773.576 1585.04 770.163 1583.93C766.75 1582.82 763.507 1581.29 760.435 1579.32C757.448 1577.28 754.76 1574.93 752.371 1572.28C750.067 1569.55 748.232 1566.61 746.867 1563.45C744.819 1558.76 743.496 1553.77 742.899 1548.48C742.302 1543.1 742.558 1537.85 743.667 1532.73C744.947 1526.84 747.208 1521.21 750.451 1515.84C753.694 1510.46 757.534 1505.72 761.971 1501.63C764.19 1499.67 766.579 1497.83 769.139 1496.12C771.784 1494.42 774.643 1493.56 777.715 1493.56C779.507 1493.56 781.043 1493.86 782.323 1494.46C784.456 1494.55 786.76 1494.97 789.235 1495.74C791.71 1496.42 794.099 1497.32 796.403 1498.43C798.792 1499.54 801.054 1500.77 803.187 1502.14C805.32 1503.42 807.155 1504.79 808.691 1506.24C811.166 1508.45 813.342 1510.97 815.219 1513.79C817.096 1516.52 818.675 1519.38 819.955 1522.36C821.576 1526.29 822.558 1530.47 822.899 1534.91C823.24 1539.26 822.942 1543.48 822.003 1547.58C820.979 1552.27 819.187 1556.88 816.627 1561.4C814.067 1565.93 810.952 1569.98 807.283 1573.56C803.614 1577.15 799.475 1580.05 794.867 1582.27C790.259 1584.49 785.438 1585.6 780.403 1585.6ZM780.275 1563.84C782.579 1563.84 784.84 1563.2 787.059 1561.92C789.278 1560.55 791.283 1558.89 793.075 1556.92C794.952 1554.96 796.531 1552.83 797.811 1550.52C799.091 1548.22 799.987 1546.04 800.499 1544C801.438 1540.67 801.566 1537.34 800.883 1534.01C799.944 1529.4 797.811 1525.65 794.483 1522.75C791.155 1519.85 787.315 1517.8 782.963 1516.6C782.024 1517.03 781.043 1517.33 780.019 1517.5C778.995 1517.59 777.971 1517.54 776.947 1517.37C774.899 1519.33 773.022 1521.51 771.315 1523.9C769.608 1526.2 768.158 1528.68 766.963 1531.32C765.768 1533.97 765 1536.79 764.659 1539.77C764.318 1542.76 764.403 1545.66 764.915 1548.48C765.171 1550.1 765.555 1551.68 766.067 1553.21C766.664 1554.75 767.432 1556.11 768.371 1557.31C769.736 1559.1 771.486 1560.64 773.619 1561.92C775.752 1563.2 777.971 1563.84 780.275 1563.84ZM864.231 1581.37C862.61 1583.16 860.732 1584.23 858.599 1584.57C856.466 1585 854.418 1584.87 852.455 1584.19C850.578 1583.51 848.956 1582.31 847.591 1580.6C846.311 1578.9 845.586 1576.85 845.415 1574.46C845.415 1573.44 845.415 1571.77 845.415 1569.47C845.415 1567.08 845.415 1564.35 845.415 1561.28C845.5 1558.2 845.586 1554.96 845.671 1551.55C845.756 1548.13 845.842 1544.89 845.927 1541.82C846.012 1538.75 846.098 1536.06 846.183 1533.76C846.268 1531.37 846.311 1529.66 846.311 1528.64V1524.28C844.263 1524.28 842.343 1524.28 840.551 1524.28C838.844 1524.28 837.692 1524.33 837.095 1524.41C834.962 1525.35 832.786 1525.65 830.567 1525.31C828.434 1524.88 826.556 1523.86 824.935 1522.24C823.655 1520.96 822.759 1519.51 822.247 1517.88C821.65 1516.26 821.436 1514.64 821.607 1513.02C821.692 1511.4 822.162 1509.86 823.015 1508.41C823.868 1506.96 825.063 1505.72 826.599 1504.7C828.22 1503.68 830.012 1503.08 831.975 1502.91C834.023 1502.74 836.028 1502.61 837.991 1502.52C838.503 1502.52 839.57 1502.52 841.191 1502.52C842.812 1502.52 844.562 1502.52 846.439 1502.52C848.316 1502.52 850.066 1502.52 851.687 1502.52C853.308 1502.52 854.375 1502.52 854.887 1502.52C859.239 1502.35 863.506 1502.18 867.687 1502.01C871.954 1501.84 876.263 1501.76 880.615 1501.76C882.322 1501.76 883.986 1501.8 885.607 1501.88C887.314 1501.88 888.978 1502.1 890.599 1502.52C893.5 1503.04 895.804 1504.57 897.511 1507.13C898.791 1509.18 899.388 1511.27 899.303 1513.4C899.218 1515.54 898.578 1517.46 897.383 1519.16C896.274 1520.87 894.738 1522.19 892.775 1523.13C890.898 1524.07 888.764 1524.33 886.375 1523.9C885.778 1523.73 884.796 1523.64 883.431 1523.64C882.151 1523.56 880.658 1523.52 878.951 1523.52C877.33 1523.52 875.58 1523.56 873.703 1523.64C871.826 1523.64 869.948 1523.69 868.071 1523.77C867.986 1527.1 867.9 1531.28 867.815 1536.32C867.73 1541.35 867.602 1546.43 867.431 1551.55C867.346 1556.58 867.26 1561.19 867.175 1565.37C867.175 1569.47 867.175 1572.24 867.175 1573.69C867.175 1576.68 866.194 1579.24 864.231 1581.37ZM949.706 1582.78C946.89 1582.78 944.373 1581.8 942.154 1579.84C939.935 1577.79 938.783 1575.14 938.698 1571.9C938.613 1567.89 938.527 1563.96 938.442 1560.12C938.357 1556.2 938.271 1552.23 938.186 1548.22C936.223 1548.48 934.133 1548.77 931.914 1549.12C929.781 1549.46 928.373 1549.76 927.69 1550.01C927.263 1550.18 926.794 1550.31 926.282 1550.4C925.77 1550.48 925.301 1550.57 924.874 1550.65C924.533 1554.41 924.106 1558.12 923.594 1561.79C923.167 1565.37 922.741 1569.04 922.314 1572.8C922.058 1575.53 920.863 1577.83 918.73 1579.71C916.682 1581.5 914.293 1582.4 911.562 1582.4C910.111 1582.4 908.703 1582.1 907.338 1581.5C905.973 1580.9 904.778 1580.09 903.754 1579.07C902.73 1578.04 901.919 1576.81 901.322 1575.36C900.81 1573.91 900.597 1572.33 900.682 1570.62C901.109 1565.59 901.663 1560.64 902.346 1555.77C903.114 1550.82 903.498 1545.83 903.498 1540.8C903.583 1534.91 903.242 1529.11 902.474 1523.39C901.791 1517.59 901.365 1511.74 901.194 1505.85C901.109 1502.61 902.133 1499.92 904.266 1497.79C906.485 1495.65 909.045 1494.59 911.946 1494.59C914.762 1494.59 917.237 1495.57 919.37 1497.53C921.503 1499.41 922.655 1501.8 922.826 1504.7C923.082 1508.63 923.423 1512.55 923.85 1516.48C924.277 1520.32 924.618 1524.24 924.874 1528.25C924.959 1528.17 925.173 1528.12 925.514 1528.12C925.685 1528.12 926.154 1528.08 926.922 1528C927.775 1527.83 928.33 1527.7 928.586 1527.61C930.207 1527.36 931.786 1527.14 933.322 1526.97C934.943 1526.72 936.565 1526.46 938.186 1526.2C938.186 1523.39 938.229 1520.57 938.314 1517.76C938.485 1514.94 938.655 1512.12 938.826 1509.31C938.911 1507.52 939.167 1505.81 939.594 1504.19C940.106 1502.48 940.789 1500.99 941.642 1499.71C942.581 1498.43 943.775 1497.4 945.226 1496.64C946.677 1495.78 948.426 1495.36 950.474 1495.36C953.119 1495.36 955.338 1496.12 957.13 1497.66C958.922 1499.11 960.373 1500.99 961.482 1503.29C962.506 1505.25 962.89 1507.3 962.634 1509.44C962.463 1511.48 961.695 1513.36 960.33 1515.07C959.818 1524.54 959.647 1533.97 959.818 1543.36C960.074 1552.66 960.287 1562.04 960.458 1571.52C960.458 1573.05 960.159 1574.5 959.562 1575.87C959.05 1577.23 958.282 1578.43 957.258 1579.45C956.319 1580.48 955.21 1581.29 953.93 1581.88C952.65 1582.48 951.242 1582.78 949.706 1582.78Z" fill="white"/>
</svg>
